<svg width="21" height="21" viewBox="0 0 21 21" fill="none" xmlns="http://www.w3.org/2000/svg">
<path d="M7.98191 12.6152C7.98856 12.0952 7.84436 11.5818 7.56259 11.1224C7.28082 10.6629 6.87051 10.2721 6.36943 9.98588C5.86835 9.69968 5.29259 9.52728 4.69511 9.48455C4.09764 9.44181 3.49764 9.53012 2.95032 9.74134C2.40301 9.95255 1.92595 10.2799 1.56304 10.6933C1.20014 11.1066 0.963042 11.5927 0.873565 12.1068C0.784089 12.6209 0.845107 13.1465 1.05101 13.6353C1.25691 14.124 1.60107 14.5602 2.05184 14.9037C1.6655 15.1905 1.35433 15.5456 1.13914 15.9454C0.923949 16.3451 0.809705 16.7803 0.804047 17.2218L0.789368 19.5476C0.78807 19.7533 0.880969 19.9511 1.04763 20.0975C1.21428 20.244 1.44105 20.3271 1.67804 20.3286L3.46516 20.3398C3.70215 20.3413 3.92995 20.2611 4.09844 20.1168C4.26694 19.9724 4.36232 19.7758 4.36362 19.5702C4.36492 19.3646 4.27202 19.1668 4.10536 19.0203C3.9387 18.8739 3.71194 18.7908 3.47495 18.7893L2.58139 18.7836L2.59117 17.2331C2.59377 16.8218 2.78454 16.4286 3.12153 16.14C3.45852 15.8513 3.91411 15.6908 4.38809 15.6938C4.86206 15.6968 5.31559 15.863 5.64891 16.1559C5.98223 16.4488 6.16802 16.8444 6.16543 17.2556L6.15075 19.5815C6.14945 19.7871 6.24235 19.9849 6.40901 20.1313C6.57566 20.2778 6.80243 20.3609 7.03942 20.3624C7.27641 20.3639 7.5042 20.2837 7.6727 20.1393C7.84119 19.995 7.93658 19.7984 7.93787 19.5928L7.95255 17.2669C7.95247 16.8254 7.84373 16.3888 7.6336 15.9864C7.42348 15.5839 7.11681 15.2249 6.73412 14.9333C7.12046 14.6465 7.43163 14.2914 7.64682 13.8916C7.86201 13.4919 7.97625 13.0567 7.98191 12.6152V12.6152ZM2.62053 12.5814C2.62247 12.2747 2.72917 11.9756 2.92715 11.7219C3.12514 11.4681 3.4055 11.2711 3.7328 11.1558C4.06009 11.0405 4.41962 11.0121 4.76591 11.0741C5.1122 11.1361 5.4297 11.2858 5.67827 11.5042C5.92683 11.7227 6.0953 12 6.16236 12.3012C6.22941 12.6025 6.19206 12.914 6.055 13.1965C5.91795 13.4789 5.68736 13.7197 5.3924 13.8882C5.09743 14.0567 4.75133 14.1455 4.39787 14.1432C3.9239 14.1402 3.47037 13.974 3.13705 13.6811C2.80373 13.3882 2.61794 12.9926 2.62053 12.5814Z" fill="#8B97AE"/>
<path d="M19.2433 15.0122C19.7964 14.6016 20.1915 14.0539 20.3754 13.4425C20.5594 12.8311 20.5235 12.1852 20.2725 11.5913C20.0216 10.9974 19.5676 10.4839 18.9713 10.1196C18.3751 9.75532 17.6651 9.55763 16.9365 9.55303C16.2079 9.54843 15.4955 9.73714 14.8947 10.0939C14.2939 10.4506 13.8334 10.9583 13.575 11.549C13.3166 12.1397 13.2725 12.7851 13.4487 13.3988C13.625 14.0125 14.0131 14.5651 14.561 14.9827C14.1747 15.2694 13.8635 15.6246 13.6483 16.0243C13.4331 16.4241 13.3189 16.8593 13.3132 17.3007L13.2985 19.6266C13.2972 19.8322 13.3901 20.03 13.5568 20.1764C13.7234 20.3229 13.9502 20.406 14.1872 20.4075C14.4242 20.409 14.652 20.3287 14.8205 20.1844C14.989 20.0401 15.0844 19.8435 15.0856 19.6379L15.1003 17.312C15.1029 16.9008 15.2937 16.5076 15.6307 16.2189C15.9677 15.9302 16.4233 15.7697 16.8972 15.7727C17.3712 15.7757 17.8247 15.942 18.1581 16.2349C18.4914 16.5278 18.6772 16.9233 18.6746 17.3346L18.6648 18.8851L17.7712 18.8795C17.5342 18.878 17.3064 18.9582 17.138 19.1026C16.9695 19.2469 16.8741 19.4435 16.8728 19.6491C16.8715 19.8547 16.9644 20.0525 17.131 20.199C17.2977 20.3454 17.5245 20.4286 17.7614 20.4301L19.5486 20.4413C19.7856 20.4428 20.0134 20.3626 20.1819 20.2182C20.3503 20.0739 20.4457 19.8773 20.447 19.6717L20.4617 17.3458C20.4616 16.9043 20.3529 16.4678 20.1428 16.0653C19.9326 15.6629 19.626 15.3038 19.2433 15.0122V15.0122ZM15.1297 12.6603C15.1316 12.3537 15.2383 12.0545 15.4363 11.8008C15.6343 11.547 15.9147 11.3501 16.242 11.2348C16.5692 11.1195 16.9288 11.091 17.2751 11.153C17.6214 11.2151 17.9389 11.3647 18.1874 11.5832C18.436 11.8016 18.6045 12.079 18.6715 12.3802C18.7386 12.6814 18.7012 12.9929 18.5642 13.2754C18.4271 13.5579 18.1965 13.7986 17.9016 13.9671C17.6066 14.1356 17.2605 14.2244 16.907 14.2222C16.4331 14.2192 15.9795 14.0529 15.6462 13.76C15.3129 13.4671 15.1271 13.0716 15.1297 12.6603Z" fill="#8B97AE"/>
<path d="M3.54342 7.93535C3.78041 7.93685 4.00821 7.8566 4.1767 7.71226C4.34519 7.56793 4.44058 7.37133 4.44188 7.16571L4.47124 2.51403C4.47254 2.30841 4.56792 2.11181 4.73642 1.96748C4.90491 1.82314 5.13271 1.74289 5.36969 1.74439L14.3053 1.80079C14.5423 1.80228 14.7691 1.8854 14.9357 2.03185C15.1024 2.1783 15.1953 2.37609 15.194 2.58171L15.1842 4.13227C15.1831 4.23484 15.1585 4.33616 15.1119 4.43035C15.0653 4.52455 14.9976 4.60975 14.9127 4.68102C14.7453 4.8232 14.5202 4.90253 14.2858 4.90191L7.13725 4.85679C6.90026 4.85529 6.67246 4.93554 6.50397 5.07988C6.33548 5.22421 6.24009 5.42081 6.23879 5.62643C6.23749 5.83205 6.33039 6.02984 6.49705 6.17629C6.66371 6.32274 6.89047 6.40585 7.12746 6.40735L14.276 6.45247C14.9869 6.45695 15.6703 6.21621 16.1758 5.78321C16.6813 5.3502 16.9674 4.7604 16.9713 4.14355L16.9811 2.59299C16.985 1.97613 16.7063 1.38276 16.2063 0.943412C15.7064 0.50406 15.0261 0.254713 14.3151 0.250226L5.37948 0.193829C4.66852 0.189342 3.98513 0.430082 3.47965 0.863089C2.97417 1.2961 2.68801 1.8859 2.68411 2.50275L2.65475 7.15443C2.65346 7.36005 2.74635 7.55784 2.91301 7.70429C3.07967 7.85074 3.30644 7.93386 3.54342 7.93535Z" fill="#8B97AE"/>
</svg>
