<svg width="25" height="20" viewBox="0 0 25 20" fill="none" xmlns="http://www.w3.org/2000/svg">
<path d="M3.05145 7.19117C3.21935 7.04852 3.41811 6.93607 3.63633 6.86028C3.85456 6.7845 4.08796 6.74685 4.32315 6.74952C4.79712 6.75251 5.25065 6.91874 5.58397 7.21164C5.91729 7.50454 6.10308 7.90012 6.10049 8.31136C6.09919 8.51698 6.19209 8.71476 6.35875 8.86122C6.52541 9.00767 6.75217 9.09078 6.98916 9.09228C7.22615 9.09377 7.45394 9.01353 7.62244 8.86919C7.79093 8.72486 7.88632 8.52825 7.88762 8.32264C7.88753 7.88112 7.77879 7.44454 7.56866 7.0421C7.35854 6.63965 7.05187 6.28062 6.66918 5.98901C7.22235 5.57842 7.61738 5.03073 7.80134 4.41931C7.9853 3.8079 7.9494 3.16197 7.69845 2.56808C7.4475 1.97419 6.99349 1.46069 6.39725 1.0964C5.80101 0.732109 5.09102 0.53442 4.3624 0.529822C3.63379 0.525223 2.92136 0.713934 2.32056 1.07067C1.71977 1.42741 1.25932 1.93513 1.00089 2.52581C0.742464 3.11649 0.698414 3.76191 0.874642 4.3756C1.05087 4.98928 1.43896 5.54192 1.9869 5.95946C1.92406 6.00558 1.85233 6.0439 1.79842 6.09008C1.46479 6.37619 1.19952 6.71664 1.01776 7.09197C0.835995 7.4673 0.741309 7.87015 0.739107 8.27752C0.737809 8.48314 0.830707 8.68093 0.997365 8.82738C1.16402 8.97383 1.39079 9.05694 1.62778 9.05844C1.86477 9.05994 2.09256 8.97969 2.26106 8.83535C2.42955 8.69102 2.52494 8.49442 2.52623 8.2888C2.52616 8.08473 2.57252 7.88272 2.66265 7.69437C2.75278 7.50601 2.8849 7.33501 3.05145 7.19117V7.19117ZM4.35251 2.09784C4.70597 2.10007 5.05092 2.19319 5.34373 2.36542C5.63655 2.53765 5.86408 2.78126 5.99756 3.06545C6.13103 3.34963 6.16445 3.66162 6.0936 3.96196C6.02274 4.2623 5.85079 4.53751 5.59949 4.75279C5.34819 4.96806 5.02882 5.11372 4.68177 5.17137C4.33473 5.22901 3.97559 5.19603 3.64977 5.07661C3.32396 4.95719 3.0461 4.75669 2.85134 4.50046C2.65658 4.24424 2.55366 3.94379 2.55559 3.63712C2.55819 3.22588 2.74896 2.83268 3.08595 2.54401C3.42294 2.25534 3.87853 2.09485 4.35251 2.09784V2.09784Z" fill="#8B97AE"/>
<path d="M8.78055 8.32827C8.77925 8.53389 8.87215 8.73168 9.03881 8.87813C9.20547 9.02458 9.43223 9.10769 9.66922 9.10919C9.90621 9.11069 10.134 9.03044 10.3025 8.8861C10.471 8.74177 10.5664 8.54517 10.5677 8.33955C10.5703 7.92832 10.761 7.53511 11.098 7.24644C11.435 6.95777 11.8906 6.79728 12.3646 6.80027C12.8386 6.80326 13.2921 6.96949 13.6254 7.26239C13.9587 7.5553 14.1445 7.95087 14.1419 8.36211C14.1406 8.56773 14.2335 8.76552 14.4002 8.91197C14.5668 9.05842 14.7936 9.14153 15.0306 9.14303C15.2676 9.14452 15.4954 9.06428 15.6639 8.91994C15.8324 8.77561 15.9278 8.57901 15.9291 8.37339C15.929 7.93187 15.8202 7.49529 15.6101 7.09285C15.4 6.6904 15.0933 6.33137 14.7106 6.03977C15.2638 5.62917 15.6588 5.08148 15.8428 4.47006C16.0267 3.85865 15.9908 3.21272 15.7399 2.61883C15.4889 2.02494 15.0349 1.51144 14.4387 1.14715C13.8424 0.78286 13.1325 0.585171 12.4038 0.580573C11.6752 0.575974 10.9628 0.764685 10.362 1.12142C9.76121 1.47816 9.30076 1.98588 9.04233 2.57656C8.78391 3.16724 8.73986 3.81266 8.91608 4.42635C9.09231 5.04003 9.4804 5.59267 10.0283 6.01021C9.642 6.29696 9.33083 6.6521 9.11564 7.05186C8.90045 7.45162 8.78621 7.88679 8.78055 8.32827V8.32827ZM10.597 3.68787C10.599 3.3812 10.7057 3.08207 10.9037 2.82833C11.1016 2.57458 11.382 2.3776 11.7093 2.2623C12.0366 2.147 12.3961 2.11857 12.7424 2.18058C13.0887 2.2426 13.4062 2.39229 13.6548 2.61071C13.9033 2.82914 14.0718 3.1065 14.1389 3.40771C14.2059 3.70893 14.1686 4.02047 14.0315 4.30294C13.8945 4.58542 13.6639 4.82614 13.3689 4.99466C13.0739 5.16318 12.7278 5.25194 12.3744 5.24971C11.9004 5.24672 11.4469 5.08049 11.1136 4.78758C10.7802 4.49468 10.5944 4.0991 10.597 3.68787Z" fill="#8B97AE"/>
<path d="M22.7522 6.09052C23.3054 5.67992 23.7004 5.13223 23.8843 4.52081C24.0683 3.9094 24.0324 3.26348 23.7815 2.66958C23.5305 2.07569 23.0765 1.56219 22.4803 1.1979C21.884 0.833611 21.174 0.635922 20.4454 0.631323C19.7168 0.626725 19.0044 0.815436 18.4036 1.17217C17.8028 1.52891 17.3423 2.03663 17.0839 2.62731C16.8255 3.21799 16.7814 3.86341 16.9577 4.4771C17.1339 5.09078 17.522 5.64342 18.0699 6.06096C18.0071 6.10709 17.9353 6.1454 17.8814 6.19158C17.5478 6.47769 17.2825 6.81814 17.1008 7.19347C16.919 7.5688 16.8243 7.97165 16.8221 8.37902C16.8208 8.58464 16.9137 8.78243 17.0804 8.92888C17.247 9.07533 17.4738 9.15845 17.7108 9.15994C17.9478 9.16144 18.1756 9.08119 18.3441 8.93685C18.5126 8.79252 18.6079 8.59592 18.6092 8.3903C18.6118 7.97907 18.8026 7.58586 19.1396 7.29719C19.4766 7.00852 19.9322 6.84803 20.4062 6.85102C20.8801 6.85401 21.3337 7.02024 21.667 7.31314C22.0003 7.60605 22.1861 8.00163 22.1835 8.41286C22.1822 8.61848 22.2751 8.81627 22.4418 8.96272C22.6084 9.10917 22.8352 9.19228 23.0722 9.19378C23.3092 9.19528 23.537 9.11503 23.7054 8.97069C23.8739 8.82636 23.9693 8.62976 23.9706 8.42414C23.9705 7.98262 23.8618 7.54604 23.6517 7.1436C23.4415 6.74115 23.1349 6.38212 22.7522 6.09052V6.09052ZM20.4355 2.19934C20.789 2.20157 21.1339 2.29469 21.4267 2.46692C21.7196 2.63916 21.9471 2.88276 22.0806 3.16695C22.214 3.45113 22.2475 3.76312 22.1766 4.06346C22.1058 4.36381 21.9338 4.63901 21.6825 4.85429C21.4312 5.06956 21.1118 5.21523 20.7648 5.27287C20.4177 5.33051 20.0586 5.29753 19.7328 5.17811C19.407 5.05869 19.1291 4.85819 18.9343 4.60197C18.7396 4.34574 18.6367 4.04529 18.6386 3.73862C18.6412 3.32739 18.832 2.93418 19.169 2.64551C19.5059 2.35684 19.9615 2.19635 20.4355 2.19934V2.19934Z" fill="#8B97AE"/>
<path d="M21.2409 16.16L7.31105 16.0721L7.58052 15.849C7.74969 15.704 7.84547 15.5066 7.84677 15.3002C7.84807 15.0937 7.7548 14.8951 7.58747 14.7481C7.42014 14.601 7.19246 14.5176 6.95452 14.5161C6.71657 14.5146 6.48786 14.5951 6.31869 14.7401L4.52188 16.2793C4.44007 16.3526 4.37575 16.4391 4.33263 16.534C4.24207 16.7222 4.24073 16.9339 4.32891 17.1232C4.37083 17.2187 4.43405 17.306 4.51493 17.3802L6.29217 18.9421C6.37477 19.0153 6.47323 19.0736 6.58186 19.1136C6.6905 19.1537 6.80716 19.1747 6.92511 19.1754C7.04306 19.1762 7.15998 19.1566 7.26911 19.118C7.37824 19.0793 7.47743 19.0222 7.56095 18.9501C7.64515 18.8785 7.71216 18.7932 7.75812 18.699C7.80408 18.6048 7.82808 18.5037 7.82872 18.4013C7.82937 18.299 7.80665 18.1975 7.76189 18.1027C7.71712 18.008 7.65119 17.9218 7.5679 17.8492L7.30126 17.6227L21.2311 17.7106C21.4681 17.7121 21.6958 17.6318 21.8643 17.4875C22.0328 17.3432 22.1282 17.1466 22.1295 16.9409C22.1308 16.7353 22.0379 16.5375 21.8712 16.3911C21.7046 16.2446 21.4778 16.1615 21.2409 16.16Z" fill="#8B97AE"/>
<path d="M9.90286 13.212C9.81865 13.2835 9.75164 13.3688 9.70568 13.463C9.65971 13.5572 9.63572 13.6584 9.63507 13.7608C9.63443 13.8631 9.65714 13.9646 9.70191 14.0593C9.74668 14.1541 9.81262 14.2403 9.89591 14.3129C9.97852 14.3861 10.077 14.4444 10.1856 14.4844C10.2943 14.5245 10.4109 14.5455 10.5289 14.5462C10.6469 14.5469 10.7638 14.5274 10.8729 14.4887C10.9821 14.4501 11.0812 14.393 11.1648 14.3209L12.9617 12.7816C13.0435 12.7084 13.1078 12.6218 13.1509 12.5269C13.2415 12.3388 13.2428 12.127 13.1547 11.9377C13.1127 11.8423 13.0495 11.7549 12.9686 11.6807L11.1913 10.1189C11.024 9.97181 10.7963 9.88836 10.5583 9.88685C10.3203 9.88535 10.0916 9.96593 9.92243 10.1109C9.75325 10.2558 9.65747 10.4532 9.65617 10.6596C9.65487 10.8661 9.74815 11.0647 9.91549 11.2118L10.1821 11.4383L3.39999 11.3955C3.163 11.394 2.93521 11.4742 2.76671 11.6186C2.59822 11.7629 2.50283 11.9595 2.50154 12.1651C2.50024 12.3707 2.59314 12.5685 2.75979 12.715C2.92645 12.8614 3.15322 12.9445 3.39021 12.946L10.1723 12.9888L9.90286 13.212Z" fill="#8B97AE"/>
</svg>
