<svg width="28" height="20" viewBox="0 0 28 20" fill="none" xmlns="http://www.w3.org/2000/svg">
    <g filter="url(#filter0_d_2991_7836)">
        <path fill-rule="evenodd" clip-rule="evenodd"
            d="M14.0356 4.25596L12.5993 2.99381C11.2851 1.83888 9.14263 1.82536 7.81393 2.96362C6.48527 4.10189 6.47352 5.96079 7.78767 7.11574L9.22382 8.37789L13.9828 12.5605L20.2299 7.2088L20.2467 7.19456C21.5754 6.05628 21.5872 4.19729 20.2729 3.04233C18.9587 1.88741 16.8163 1.87387 15.4876 3.01208L14.0356 4.25596ZM13.967 15.0666L6.33541 8.35984C4.22808 6.50776 4.24712 3.52669 6.37771 1.70146C8.50835 -0.123798 11.944 -0.102114 14.0514 1.74989C16.182 -0.0752865 19.6175 -0.0535764 21.7249 1.79841C23.8323 3.65041 23.8135 6.63146 21.6829 8.4567L21.6563 8.4793L13.967 15.0666Z"
            fill="#8B97AE" />
        <path
            d="M14.0472 2.41185L13.7213 2.12547C11.8009 0.437775 8.64461 0.417854 6.70301 2.08117L14.0472 2.41185ZM14.0472 2.41185L14.3767 2.12961M14.0472 2.41185L14.3767 2.12961M14.3767 2.12961C16.3182 0.466367 19.4745 0.48631 21.3949 2.17399C23.2735 3.82495 23.2572 6.44888 21.3585 8.07627C21.3582 8.07651 21.3579 8.07675 21.3576 8.07698L21.3325 8.09834L21.331 8.09959M14.3767 2.12961L21.331 8.09959M21.331 8.09959L13.9712 14.4046M21.331 8.09959L13.9712 14.4046M13.9712 14.4046L6.66549 7.98427C6.66548 7.98427 6.66548 7.98426 6.66548 7.98426C4.78666 6.33301 4.8034 3.70853 6.70301 2.08117L13.9712 14.4046ZM12.5993 2.99381L12.9294 2.61823C11.4282 1.29899 9.00636 1.28371 7.48864 2.5839L7.48863 2.58391C5.92898 3.92007 5.91496 6.13555 7.45759 7.49131L7.4576 7.49132L8.89375 8.75345L8.89376 8.75346L13.6528 12.9361L13.9786 13.2225L14.3081 12.9402L20.5529 7.59047L20.5552 7.58852L20.5697 7.57623L20.5697 7.57623L20.572 7.57427C22.1317 6.23809 22.1457 4.02251 20.603 2.66675L20.603 2.66675C19.1018 1.34753 16.68 1.33222 15.1623 2.63235L15.1623 2.63236L14.0397 3.594L12.9294 2.61823L12.5993 2.99381Z" />
    </g>
    <defs>
        <filter id="filter0_d_2991_7836" x="0.767273" y="0.346573" width="26.526" height="22.72"
            filterUnits="userSpaceOnUse" color-interpolation-filters="sRGB">
            <feFlood flood-opacity="0" result="BackgroundImageFix" />
            <feColorMatrix in="SourceAlpha" type="matrix" values="0 0 0 0 0 0 0 0 0 0 0 0 0 0 0 0 0 0 127 0"
                result="hardAlpha" />
            <feOffset dy="4" />
            <feGaussianBlur stdDeviation="2" />
            <feComposite in2="hardAlpha" operator="out" />
            <feColorMatrix type="matrix" values="0 0 0 0 0 0 0 0 0 0 0 0 0 0 0 0 0 0 0.25 0" />
            <feBlend mode="normal" in2="BackgroundImageFix" result="effect1_dropShadow_2991_7836" />
            <feBlend mode="normal" in="SourceGraphic" in2="effect1_dropShadow_2991_7836" result="shape" />
        </filter>
    </defs>
</svg>