<svg width="24" height="22" viewBox="0 0 24 22" fill="none" xmlns="http://www.w3.org/2000/svg">
<path fill-rule="evenodd" clip-rule="evenodd" d="M10.5436 1.15573C11.4312 0.522389 12.7148 0.53049 13.5944 1.17498L23.0816 8.1265C23.6224 8.52273 23.9328 9.10657 23.9289 9.72017L23.87 19.0562C23.8628 20.198 22.7902 21.1169 21.4742 21.1086L2.41269 20.9883C1.09676 20.98 0.0358353 20.0477 0.0430419 18.9058L0.101965 9.56979C0.105838 8.95618 0.423609 8.37631 0.969319 7.98694L10.5436 1.15573ZM12.0589 2.75358L2.48466 9.58483L2.42574 18.9209L7.19113 18.9509L7.21396 15.333C7.22117 14.1911 8.29378 13.2723 9.6097 13.2806L14.3751 13.3107C15.6911 13.319 16.7519 14.2513 16.7447 15.3931L16.7219 19.0111L21.4873 19.0412L21.5462 9.70514L12.0589 2.75358ZM14.3392 18.996L14.362 15.3781L9.59665 15.348L9.57382 18.966L14.3392 18.996Z" fill="#8B97AE"/>
</svg>
