<svg width="24" height="22" viewBox="0 0 24 22" fill="none" xmlns="http://www.w3.org/2000/svg">
<path d="M18.8968 0.842751C18.0132 0.837173 17.1479 1.05907 16.4105 1.48038C15.6731 1.90168 15.0966 2.50348 14.754 3.20966C14.4114 3.91585 14.318 4.69471 14.4856 5.44774C14.6533 6.20078 15.0744 6.89417 15.6958 7.44024C16.3173 7.98631 17.111 8.36052 17.9767 8.51557C18.8425 8.67061 19.7413 8.59951 20.5595 8.31127C21.3778 8.02303 22.0787 7.53058 22.5736 6.89621C23.0686 6.26184 23.3353 5.51403 23.3402 4.74735C23.3453 3.71963 22.8803 2.73138 22.0473 1.99939C21.2144 1.2674 20.0813 0.851437 18.8968 0.842751V0.842751ZM18.8577 7.04499C18.3275 7.04164 17.8101 6.90197 17.3709 6.64362C16.9316 6.38527 16.5903 6.01985 16.3901 5.59358C16.1899 5.16731 16.1398 4.69932 16.2461 4.24881C16.3523 3.79829 16.6103 3.38548 16.9872 3.06257C17.3642 2.73966 17.8432 2.52116 18.3638 2.4347C18.8844 2.34824 19.4231 2.3977 19.9118 2.57683C20.4005 2.75596 20.8173 3.05671 21.1094 3.44105C21.4016 3.82539 21.556 4.27606 21.5531 4.73607C21.5484 5.35271 21.262 5.94212 20.7567 6.37498C20.2514 6.80784 19.5684 7.0488 18.8577 7.04499V7.04499Z" fill="#8B97AE"/>
<path d="M20.6249 10.1574C20.3879 10.1559 20.1601 10.2361 19.9916 10.3805C19.8231 10.5248 19.7277 10.7214 19.7264 10.927L19.6775 18.6798C19.676 18.8854 19.5806 19.0819 19.4121 19.2262C19.2437 19.3705 19.016 19.4508 18.7791 19.4495L2.69594 19.348C2.45896 19.3465 2.23221 19.2634 2.06556 19.1169C1.89892 18.9705 1.80602 18.7727 1.80732 18.567L1.8954 4.61201C1.897 4.40647 1.99248 4.21003 2.1609 4.06575C2.32931 3.92147 2.55692 3.84114 2.7938 3.84237L11.7289 3.89876C11.9659 3.90025 12.1937 3.82001 12.3621 3.67567C12.5306 3.53134 12.626 3.33473 12.6273 3.12912C12.6286 2.9235 12.5357 2.72571 12.3691 2.57926C12.2024 2.43281 11.9757 2.34969 11.7387 2.3482L2.80359 2.29181C2.0929 2.288 1.41 2.52896 0.904723 2.96182C0.399444 3.39468 0.11305 3.98409 0.108377 4.60073L0.0203012 18.5558C0.0174155 18.8613 0.0844224 19.1644 0.217441 19.4475C0.35046 19.7307 0.546847 19.9882 0.795228 20.2052C1.2962 20.6431 1.97567 20.8923 2.68615 20.8985L18.7693 21C19.48 21.0038 20.1629 20.7629 20.6682 20.33C21.1735 19.8972 21.4599 19.3078 21.4645 18.6911L21.5135 10.9383C21.5148 10.7327 21.4219 10.5349 21.2552 10.3885C21.0886 10.242 20.8618 10.1589 20.6249 10.1574Z" fill="#8B97AE"/>
</svg>
