<svg width="20" height="21" viewBox="0 0 20 21" fill="none" xmlns="http://www.w3.org/2000/svg">
<path d="M19.4473 9.69729L14.3195 6.68773C13.8899 4.33948 12.6296 2.16395 10.7131 0.462485C10.6305 0.389295 10.5321 0.330995 10.4234 0.290948C10.3148 0.2509 10.1982 0.229899 10.0802 0.229154C9.96224 0.22841 9.84533 0.247937 9.7362 0.28661C9.62707 0.325283 9.52788 0.382335 9.44436 0.454477C7.50655 2.13161 6.21887 4.29106 5.75969 6.63371L0.594284 9.5783C0.470929 9.64775 0.369311 9.7426 0.298458 9.85442C0.227605 9.96623 0.189711 10.0916 0.188144 10.2192L0.168571 13.3204C0.167274 13.526 0.260167 13.7238 0.426815 13.8702C0.593463 14.0167 0.820215 14.0998 1.05719 14.1013L2.84421 14.1126C3.08118 14.1141 3.30897 14.0338 3.47745 13.8895C3.64593 13.7451 3.74131 13.5485 3.74261 13.3429C3.74391 13.1373 3.65102 12.9395 3.48437 12.7931C3.31772 12.6466 3.09097 12.5635 2.85399 12.562L1.96048 12.5564L1.97252 10.6492L5.55963 8.60173L5.52963 13.3542C5.52833 13.5598 5.62123 13.7576 5.78788 13.9041C5.95452 14.0505 6.18128 14.1336 6.41825 14.1351L13.5663 14.1802C13.8033 14.1817 14.0311 14.1015 14.1996 13.9571C14.3681 13.8128 14.4634 13.6162 14.4647 13.4106L14.4947 8.65813L18.0557 10.7507L18.0437 12.6579L17.1502 12.6522C16.9132 12.6507 16.6854 12.731 16.5169 12.8753C16.3484 13.0197 16.2531 13.2163 16.2518 13.4219C16.2505 13.6275 16.3433 13.8253 16.51 13.9717C16.6766 14.1182 16.9034 14.2013 17.1404 14.2028L18.9274 14.2141C19.1644 14.2156 19.3921 14.1353 19.5606 13.991C19.7291 13.8466 19.8245 13.65 19.8258 13.4444L19.8454 10.3433C19.8454 10.2156 19.8091 10.0898 19.7397 9.97712C19.6702 9.86442 19.5698 9.7683 19.4473 9.69729V9.69729ZM12.6826 12.624L7.32155 12.5902L7.34767 8.4502C7.36757 6.12842 8.33097 3.88865 10.0682 2.12533C11.7831 3.91044 12.7182 6.16219 12.7087 8.48404L12.6826 12.624Z" fill="#8B97AE"/>
<path d="M13.5574 15.7308C13.3204 15.7293 13.0927 15.8095 12.9242 15.9539C12.7557 16.0982 12.6603 16.2948 12.659 16.5004C12.6577 16.7061 12.7506 16.9038 12.9172 17.0503C13.0839 17.1967 13.3107 17.2799 13.5476 17.2814C14.1022 17.2846 14.6423 17.437 15.0935 17.7176C15.5446 17.9981 15.8846 18.393 16.0666 18.8479L3.86058 18.7708C4.0483 18.3183 4.39327 17.9278 4.84792 17.6529C5.30258 17.3781 5.84455 17.2325 6.39914 17.2362C6.63613 17.2377 6.86393 17.1575 7.03242 17.0132C7.20092 16.8688 7.2963 16.6722 7.2976 16.4666C7.2989 16.261 7.206 16.0632 7.03934 15.9167C6.87268 15.7703 6.64592 15.6872 6.40893 15.6857C5.22399 15.6782 4.08501 16.0794 3.24254 16.8011C2.40008 17.5228 1.92314 18.5058 1.91665 19.5339C1.91533 19.6359 1.93723 19.7372 1.9811 19.8319C2.02497 19.9267 2.08995 20.013 2.17231 20.086C2.34265 20.2287 2.56875 20.3105 2.80532 20.3148L17.1023 20.405C17.3393 20.4065 17.5671 20.3263 17.7356 20.1819C17.9041 20.0376 17.9995 19.841 18.0008 19.6354C18.0073 18.6073 17.5428 17.6184 16.7095 16.8861C15.8762 16.1539 14.7424 15.7383 13.5574 15.7308V15.7308Z" fill="#8B97AE"/>
</svg>
