<svg width="21" height="21" viewBox="0 0 21 21" fill="none" xmlns="http://www.w3.org/2000/svg">
<path d="M4.93422 19.1805L2.25369 19.1636L2.34177 5.20855L19.3185 5.3157C19.5554 5.31719 19.7832 5.23694 19.9517 5.09261C20.1202 4.94827 20.2156 4.75167 20.2169 4.54606C20.2182 4.34044 20.1253 4.14265 19.9586 3.9962C19.792 3.84975 19.5652 3.76663 19.3282 3.76514L18.4347 3.7595L18.4494 1.43366C18.4507 1.22804 18.3578 1.03025 18.1912 0.883798C18.0245 0.737348 17.7978 0.654232 17.5608 0.652736L3.26464 0.562507C3.02766 0.561012 2.79988 0.641258 2.6314 0.785594C2.46291 0.92993 2.36753 1.12653 2.36623 1.33215L2.35155 3.65799L1.45804 3.65235C1.22107 3.65085 0.993287 3.7311 0.824804 3.87544C0.656321 4.01977 0.560939 4.21637 0.559641 4.42199L0.461779 19.9276C0.460481 20.1332 0.553374 20.331 0.720022 20.4775C0.88667 20.6239 1.11342 20.707 1.3504 20.7085L4.92444 20.7311C5.16141 20.7326 5.38919 20.6523 5.55768 20.508C5.72616 20.3636 5.82154 20.167 5.82284 19.9614C5.82414 19.7558 5.73124 19.558 5.5646 19.4116C5.39795 19.2651 5.1712 19.182 4.93422 19.1805ZM4.14836 2.11871L16.6575 2.19766L16.6477 3.74822L4.13857 3.66927L4.14836 2.11871Z" fill="#8B97AE"/>
<path d="M19.3094 6.86626C19.0724 6.86477 18.8446 6.94501 18.6761 7.08935C18.5076 7.23368 18.4122 7.43028 18.4109 7.6359L18.3375 19.2651L12.9761 19.2313L13.0006 15.3549C13.0019 15.1492 12.909 14.9515 12.7424 14.805C12.5757 14.6586 12.3489 14.5754 12.1119 14.5739L8.53769 14.5514C8.3007 14.5499 8.0729 14.6301 7.90441 14.7745C7.73592 14.9188 7.64053 15.1154 7.63923 15.321L7.60987 19.9727C7.60857 20.1783 7.70147 20.3761 7.86813 20.5226C8.03479 20.669 8.26155 20.7521 8.49854 20.7536C8.73553 20.7551 8.96333 20.6749 9.13182 20.5305C9.30031 20.3862 9.3957 20.1896 9.397 19.984L9.42146 16.1076L11.2086 16.1189L11.1841 19.9953C11.1828 20.2009 11.2757 20.3987 11.4424 20.5451C11.609 20.6916 11.8358 20.7747 12.0728 20.7762L19.2213 20.8213C19.4583 20.8228 19.6861 20.7426 19.8546 20.5982C20.0231 20.4539 20.1185 20.2573 20.1198 20.0517L20.198 7.64718C20.1993 7.44156 20.1064 7.24377 19.9398 7.09732C19.7731 6.95087 19.5464 6.86776 19.3094 6.86626Z" fill="#8B97AE"/>
<path d="M15.7355 6.84371L5.01276 6.77603C4.77578 6.77453 4.54798 6.85478 4.37949 6.99912C4.21099 7.14345 4.11561 7.34005 4.11431 7.54567C4.11301 7.75129 4.20591 7.94908 4.37257 8.09553C4.53923 8.24198 4.76599 8.32509 5.00298 8.32659L15.7257 8.39427C15.9627 8.39576 16.1905 8.31551 16.359 8.17118C16.5275 8.02684 16.6229 7.83024 16.6242 7.62462C16.6255 7.41901 16.5326 7.22122 16.3659 7.07477C16.1993 6.92832 15.9725 6.8452 15.7355 6.84371Z" fill="#8B97AE"/>
<path d="M15.716 9.94483L4.99323 9.87715C4.75625 9.87565 4.52845 9.9559 4.35996 10.1002C4.19146 10.2446 4.09608 10.4412 4.09478 10.6468C4.09348 10.8524 4.18638 11.0502 4.35304 11.1966C4.51969 11.3431 4.74646 11.4262 4.98345 11.4277L15.7062 11.4954C15.9432 11.4969 16.171 11.4166 16.3395 11.2723C16.508 11.128 16.6034 10.9314 16.6047 10.7257C16.606 10.5201 16.5131 10.3223 16.3464 10.1759C16.1797 10.0294 15.953 9.94632 15.716 9.94483Z" fill="#8B97AE"/>
</svg>
