<svg width="24" height="22" viewBox="0 0 24 22" fill="none" xmlns="http://www.w3.org/2000/svg">
    <path
        d="M15.5213 4.1314C15.5279 3.61137 15.3858 3.09802 15.1081 2.63858C14.8304 2.17913 14.426 1.78836 13.9321 1.5022C13.4382 1.21604 12.8707 1.04369 12.2818 1.00102C11.6928 0.958336 11.1014 1.04669 10.5619 1.25796C10.0224 1.46923 9.55209 1.79662 9.19433 2.21001C8.83657 2.6234 8.60282 3.10952 8.51457 3.62363C8.42633 4.13775 8.48643 4.66335 8.68934 5.15208C8.89226 5.64081 9.23147 6.07698 9.67577 6.42044C9.29492 6.70723 8.98816 7.06239 8.77601 7.46217C8.56386 7.86195 8.4512 8.29713 8.44559 8.73861C8.44429 8.94423 8.53584 9.14201 8.70011 9.28845C8.86437 9.43488 9.08789 9.51798 9.32149 9.51945C9.55509 9.52093 9.77964 9.44066 9.94574 9.29631C10.1118 9.15196 10.2059 8.95535 10.2072 8.74973C10.2098 8.3385 10.3979 7.94528 10.7301 7.65658C11.0623 7.36787 11.5114 7.20734 11.9786 7.21029C12.4458 7.21324 12.8928 7.37943 13.2213 7.6723C13.5499 7.96517 13.733 8.36073 13.7304 8.77197C13.7291 8.97758 13.8206 9.17537 13.9849 9.3218C14.1492 9.46824 14.3727 9.55133 14.6063 9.55281C14.8399 9.55428 15.0644 9.47401 15.2305 9.32966C15.3966 9.18531 15.4907 8.9887 15.492 8.78309C15.4919 8.34157 15.3848 7.905 15.1777 7.50257C14.9706 7.10015 14.6683 6.74114 14.2911 6.44957C14.672 6.16279 14.9788 5.80763 15.1909 5.40785C15.4031 5.00807 15.5157 4.57288 15.5213 4.1314V4.1314ZM10.2365 4.09805C10.2385 3.79138 10.3437 3.49225 10.5389 3.23848C10.734 2.98471 11.0104 2.78771 11.333 2.67238C11.6557 2.55706 12.0101 2.52859 12.3514 2.59057C12.6927 2.65256 13.0057 2.80221 13.2507 3.02062C13.4957 3.23902 13.6617 3.51637 13.7278 3.81757C13.7939 4.11878 13.757 4.43033 13.6219 4.71281C13.4868 4.9953 13.2595 5.23604 12.9687 5.40459C12.6779 5.57314 12.3368 5.66193 11.9884 5.65973C11.5211 5.65678 11.0741 5.49059 10.7456 5.19772C10.4171 4.90485 10.2339 4.50928 10.2365 4.09805Z"
        fill="#8B97AE" />
    <path
        d="M7.52133 15.7106C7.52793 15.1905 7.38584 14.6772 7.10813 14.2177C6.83043 13.7583 6.42602 13.3675 5.93212 13.0814C5.43823 12.7952 4.8707 12.6229 4.28177 12.5802C3.69283 12.5375 3.1014 12.6259 2.56188 12.8371C2.02236 13.0484 1.55209 13.3758 1.19433 13.7892C0.836575 14.2026 0.60282 14.6887 0.514575 15.2028C0.42633 15.7169 0.48643 16.2425 0.689344 16.7312C0.892258 17.22 1.23147 17.6561 1.67577 17.9996L1.48997 18.1302C1.16108 18.4164 0.899562 18.7569 0.720364 19.1322C0.541166 19.5075 0.447796 19.9104 0.445589 20.3178C0.444291 20.5234 0.535845 20.7212 0.700109 20.8676C0.864373 21.014 1.08789 21.0971 1.32149 21.0986C1.5551 21.1001 1.77965 21.0198 1.94575 20.8755C2.11184 20.7311 2.20589 20.5345 2.20719 20.3289C2.20978 19.9177 2.39787 19.5244 2.73006 19.2357C3.06226 18.947 3.51136 18.7865 3.97857 18.7894C4.44577 18.7924 4.89281 18.9586 5.22134 19.2515C5.54987 19.5443 5.73297 19.9399 5.73038 20.3511C5.72908 20.5567 5.82063 20.7545 5.9849 20.901C6.14916 21.0474 6.37268 21.1305 6.60628 21.132C6.83988 21.1334 7.06443 21.0532 7.23053 20.9088C7.39663 20.7645 7.49068 20.5679 7.49197 20.3622C7.49193 19.9207 7.38478 19.4842 7.17769 19.0817C6.97061 18.6793 6.66835 18.3203 6.29115 18.0287C6.672 17.7419 6.97876 17.3868 7.19091 16.987C7.40306 16.5872 7.51572 16.152 7.52133 15.7106ZM4.00793 14.1378C4.35634 14.14 4.69635 14.2331 4.98497 14.4053C5.27359 14.5775 5.49785 14.8211 5.62939 15.1052C5.76093 15.3894 5.79385 15.7014 5.72398 16.0017C5.65411 16.3021 5.48459 16.5773 5.23686 16.7926C4.98912 17.0079 4.67431 17.1536 4.33221 17.2113C3.99012 17.2689 3.63611 17.236 3.31496 17.1166C2.99382 16.9972 2.71995 16.7967 2.52799 16.5405C2.33603 16.2843 2.23461 15.9839 2.23654 15.6772C2.23914 15.266 2.42722 14.8728 2.75942 14.5841C3.09162 14.2954 3.54072 14.1348 4.00793 14.1378V14.1378Z"
        fill="#8B97AE" />
    <path
        d="M22.1445 18.1289C22.6898 17.7183 23.0792 17.1705 23.2606 16.5591C23.442 15.9477 23.4067 15.3018 23.1594 14.7079C22.9121 14.114 22.4646 13.6006 21.8769 13.2363C21.2892 12.8721 20.5894 12.6745 19.8712 12.6699C19.1529 12.6654 18.4507 12.8542 17.8584 13.211C17.2662 13.5678 16.8123 14.0755 16.5575 14.6662C16.3027 15.2569 16.2592 15.9024 16.4329 16.516C16.6065 17.1297 16.989 17.6823 17.5291 18.0998C17.1482 18.3866 16.8415 18.7417 16.6293 19.1415C16.4172 19.5413 16.3045 19.9765 16.2989 20.418C16.2976 20.6236 16.3892 20.8214 16.5534 20.9678C16.7177 21.1142 16.9412 21.1973 17.1748 21.1988C17.4084 21.2003 17.633 21.12 17.7991 20.9757C17.9652 20.8313 18.0592 20.6347 18.0605 20.4291C18.0631 20.0178 18.2512 19.6246 18.5834 19.3359C18.9156 19.0472 19.3647 18.8867 19.8319 18.8896C20.2991 18.8926 20.7461 19.0588 21.0747 19.3516C21.4032 19.6445 21.5863 20.0401 21.5837 20.4513C21.5824 20.6569 21.674 20.8547 21.8382 21.0011C22.0025 21.1476 22.226 21.2307 22.4596 21.2322C22.6932 21.2336 22.9178 21.1534 23.0839 21.009C23.25 20.8647 23.344 20.668 23.3453 20.4624C23.3453 20.0209 23.2381 19.5843 23.031 19.1819C22.8239 18.7795 22.5217 18.4205 22.1445 18.1289V18.1289ZM18.0899 15.7774C18.0918 15.4707 18.197 15.1716 18.3922 14.9178C18.5874 14.6641 18.8637 14.4671 19.1864 14.3517C19.509 14.2364 19.8634 14.2079 20.2047 14.2699C20.5461 14.3319 20.859 14.4816 21.104 14.7C21.349 14.9184 21.5151 15.1957 21.5811 15.4969C21.6472 15.7981 21.6103 16.1097 21.4752 16.3922C21.3401 16.6746 21.1128 16.9154 20.822 17.0839C20.5313 17.2525 20.1901 17.3413 19.8417 17.3391C19.3745 17.3361 18.9274 17.1699 18.5989 16.8771C18.2704 16.5842 18.0873 16.1886 18.0899 15.7774Z"
        fill="#8B97AE" />
    <path
        d="M13.6912 14.9742L12.8104 14.9687L12.8349 11.0923C12.8362 10.8866 12.7446 10.6889 12.5804 10.5424C12.4161 10.396 12.1926 10.3129 11.959 10.3114C11.7254 10.3099 11.5008 10.3902 11.3347 10.5346C11.1686 10.6789 11.0746 10.8755 11.0733 11.0811L11.0488 14.9575L10.168 14.952C9.93443 14.9505 9.70988 15.0308 9.54378 15.1751C9.37768 15.3195 9.28364 15.5161 9.28234 15.7217C9.28104 15.9273 9.37259 16.1251 9.53686 16.2715C9.70112 16.418 9.92464 16.5011 10.1582 16.5025L13.6814 16.5248C13.915 16.5263 14.1396 16.446 14.3057 16.3016C14.4718 16.1573 14.5658 15.9607 14.5671 15.7551C14.5684 15.5494 14.4769 15.3517 14.3126 15.2052C14.1483 15.0588 13.9248 14.9757 13.6912 14.9742Z"
        fill="#8B97AE" />
</svg>